<?xml version="1.0" encoding="utf-8"?>
<!-- Generator: Adobe Illustrator 26.0.2, SVG Export Plug-In . SVG Version: 6.00 Build 0)  -->
<svg version="1.1" id="home_img" xmlns="http://www.w3.org/2000/svg" xmlns:xlink="http://www.w3.org/1999/xlink" x="0px" y="0px"
	 viewBox="0 0 1050.4 1050.4" style="enable-background:new 0 0 1050.4 1050.4;" xml:space="preserve">
<style type="text/css">
	.st0{fill:#F5C518;}
</style>
<g>
	<path class="st0" d="M137.6,303.7h775.2c30.6,0,55.4,24.8,55.4,55.4v332.2c0,30.6-24.8,55.4-55.4,55.4H137.6
		c-30.6,0-55.4-24.8-55.4-55.4V359.1C82.2,328.5,107,303.7,137.6,303.7z"/>
</g>
<g transform="translate(8.000000, 7.000000)">
	<polygon points="185,642.8 254.2,642.8 254.2,393.6 185,393.6 	"/>
	<path d="M401.9,393.6L386.4,510l-9.6-63.3c-2.8-20.3-5.5-38-8-53.1h-86.9v249.2h58.7l0.2-164.5l24.7,164.5h41.8l23.5-168.2
		l0.2,168.2h58.5V393.6H401.9z"/>
	<path d="M517.2,642.8V393.6h108c24.4,0,44.2,19.7,44.2,44v161.2c0,24.3-19.8,44-44.2,44H517.2z M598,438.5c-2.7-1.5-8-2.2-15.6-2.2
		v163.5c10.1,0,16.3-1.8,18.6-5.6c2.3-3.7,3.5-13.8,3.5-30.4v-96.6c0-11.3-0.4-18.5-1.2-21.7C602.5,442.3,600.8,440,598,438.5z"/>
	<path d="M800,456h4.4c24.9,0,45,19.5,45,43.4v99.9c0,24-20.1,43.4-45,43.4H800c-15.2,0-28.7-7.3-36.8-18.4l-4,15.2h-62.1v-246h66.2
		v80C772,463,785.2,456,800,456z M785.9,577.5v-59c0-9.8-0.6-16.2-1.9-19.1s-6.5-4.8-10.2-4.8s-9.3,1.5-10.4,4.1v19.8v60.9v19.2
		c1.3,2.8,6.6,4.4,10.4,4.4s9.2-1.5,10.4-4.4S785.9,588.7,785.9,577.5z"/>
</g>
</svg>
